<mxfile host="Electron" agent="Mozilla/5.0 (Windows NT 10.0; Win64; x64) AppleWebKit/537.36 (KHTML, like Gecko) draw.io/25.0.2 Chrome/128.0.6613.186 Electron/32.2.5 Safari/537.36" version="25.0.2">
  <diagram id="6a731a19-8d31-9384-78a2-239565b7b9f0" name="Page-1">
    <mxGraphModel dx="1147" dy="709" grid="1" gridSize="10" guides="1" tooltips="1" connect="1" arrows="1" fold="1" page="1" pageScale="1" pageWidth="1654" pageHeight="1169" background="none" math="0" shadow="0">
      <root>
        <mxCell id="0" />
        <mxCell id="1" parent="0" />
        <mxCell id="5-MeQTM_BoOCngnWyIkS-55" value="开始" style="ellipse;whiteSpace=wrap;html=1;" vertex="1" parent="1">
          <mxGeometry x="580" y="170" width="60" height="40" as="geometry" />
        </mxCell>
        <mxCell id="5-MeQTM_BoOCngnWyIkS-56" value="结束" style="ellipse;whiteSpace=wrap;html=1;" vertex="1" parent="1">
          <mxGeometry x="767" y="880" width="60" height="40" as="geometry" />
        </mxCell>
        <mxCell id="5-MeQTM_BoOCngnWyIkS-60" style="edgeStyle=orthogonalEdgeStyle;rounded=0;orthogonalLoop=1;jettySize=auto;html=1;entryX=0.5;entryY=0;entryDx=0;entryDy=0;" edge="1" parent="1" source="5-MeQTM_BoOCngnWyIkS-57" target="5-MeQTM_BoOCngnWyIkS-59">
          <mxGeometry relative="1" as="geometry" />
        </mxCell>
        <mxCell id="5-MeQTM_BoOCngnWyIkS-57" value="按键" style="shape=parallelogram;perimeter=parallelogramPerimeter;whiteSpace=wrap;html=1;fixedSize=1;" vertex="1" parent="1">
          <mxGeometry x="580" y="240" width="60" height="30" as="geometry" />
        </mxCell>
        <mxCell id="5-MeQTM_BoOCngnWyIkS-58" style="edgeStyle=orthogonalEdgeStyle;rounded=0;orthogonalLoop=1;jettySize=auto;html=1;entryX=0.519;entryY=-0.056;entryDx=0;entryDy=0;entryPerimeter=0;" edge="1" parent="1" source="5-MeQTM_BoOCngnWyIkS-55" target="5-MeQTM_BoOCngnWyIkS-57">
          <mxGeometry relative="1" as="geometry" />
        </mxCell>
        <mxCell id="5-MeQTM_BoOCngnWyIkS-62" style="edgeStyle=orthogonalEdgeStyle;rounded=0;orthogonalLoop=1;jettySize=auto;html=1;entryX=0.5;entryY=0;entryDx=0;entryDy=0;" edge="1" parent="1" source="5-MeQTM_BoOCngnWyIkS-59" target="5-MeQTM_BoOCngnWyIkS-61">
          <mxGeometry relative="1" as="geometry" />
        </mxCell>
        <mxCell id="5-MeQTM_BoOCngnWyIkS-63" value="按下" style="edgeLabel;html=1;align=center;verticalAlign=middle;resizable=0;points=[];" vertex="1" connectable="0" parent="5-MeQTM_BoOCngnWyIkS-62">
          <mxGeometry x="-0.1908" relative="1" as="geometry">
            <mxPoint as="offset" />
          </mxGeometry>
        </mxCell>
        <mxCell id="5-MeQTM_BoOCngnWyIkS-65" style="edgeStyle=orthogonalEdgeStyle;rounded=0;orthogonalLoop=1;jettySize=auto;html=1;entryX=0;entryY=0.5;entryDx=0;entryDy=0;" edge="1" parent="1" source="5-MeQTM_BoOCngnWyIkS-59" target="5-MeQTM_BoOCngnWyIkS-64">
          <mxGeometry relative="1" as="geometry" />
        </mxCell>
        <mxCell id="5-MeQTM_BoOCngnWyIkS-66" value="未按下" style="edgeLabel;html=1;align=center;verticalAlign=middle;resizable=0;points=[];" vertex="1" connectable="0" parent="5-MeQTM_BoOCngnWyIkS-65">
          <mxGeometry x="-0.3791" y="1" relative="1" as="geometry">
            <mxPoint x="15" y="1" as="offset" />
          </mxGeometry>
        </mxCell>
        <mxCell id="5-MeQTM_BoOCngnWyIkS-59" value="按下" style="rhombus;whiteSpace=wrap;html=1;" vertex="1" parent="1">
          <mxGeometry x="585" y="300" width="50" height="50" as="geometry" />
        </mxCell>
        <mxCell id="5-MeQTM_BoOCngnWyIkS-69" style="edgeStyle=orthogonalEdgeStyle;rounded=0;orthogonalLoop=1;jettySize=auto;html=1;entryX=0.5;entryY=0;entryDx=0;entryDy=0;" edge="1" parent="1" source="5-MeQTM_BoOCngnWyIkS-61" target="5-MeQTM_BoOCngnWyIkS-68">
          <mxGeometry relative="1" as="geometry" />
        </mxCell>
        <mxCell id="5-MeQTM_BoOCngnWyIkS-61" value="按下标志置1" style="rounded=0;whiteSpace=wrap;html=1;" vertex="1" parent="1">
          <mxGeometry x="572.5" y="410" width="75" height="30" as="geometry" />
        </mxCell>
        <mxCell id="5-MeQTM_BoOCngnWyIkS-93" style="edgeStyle=none;curved=1;rounded=0;orthogonalLoop=1;jettySize=auto;html=1;entryX=0;entryY=0.5;entryDx=0;entryDy=0;fontSize=12;startSize=8;endSize=8;" edge="1" parent="1" source="5-MeQTM_BoOCngnWyIkS-64" target="5-MeQTM_BoOCngnWyIkS-92">
          <mxGeometry relative="1" as="geometry" />
        </mxCell>
        <mxCell id="5-MeQTM_BoOCngnWyIkS-64" value="按下标志置0" style="rounded=0;whiteSpace=wrap;html=1;" vertex="1" parent="1">
          <mxGeometry x="707.5" y="310" width="75" height="30" as="geometry" />
        </mxCell>
        <mxCell id="5-MeQTM_BoOCngnWyIkS-71" style="edgeStyle=orthogonalEdgeStyle;rounded=0;orthogonalLoop=1;jettySize=auto;html=1;exitX=0.5;exitY=1;exitDx=0;exitDy=0;entryX=0.5;entryY=0;entryDx=0;entryDy=0;" edge="1" parent="1" source="5-MeQTM_BoOCngnWyIkS-68" target="5-MeQTM_BoOCngnWyIkS-70">
          <mxGeometry relative="1" as="geometry" />
        </mxCell>
        <mxCell id="5-MeQTM_BoOCngnWyIkS-81" style="edgeStyle=none;curved=1;rounded=0;orthogonalLoop=1;jettySize=auto;html=1;entryX=0;entryY=0.5;entryDx=0;entryDy=0;fontSize=12;startSize=8;endSize=8;" edge="1" parent="1" source="5-MeQTM_BoOCngnWyIkS-68" target="5-MeQTM_BoOCngnWyIkS-80">
          <mxGeometry relative="1" as="geometry" />
        </mxCell>
        <mxCell id="5-MeQTM_BoOCngnWyIkS-68" value="开始计时" style="rounded=0;whiteSpace=wrap;html=1;" vertex="1" parent="1">
          <mxGeometry x="572.5" y="470" width="75" height="30" as="geometry" />
        </mxCell>
        <mxCell id="5-MeQTM_BoOCngnWyIkS-73" style="edgeStyle=orthogonalEdgeStyle;rounded=0;orthogonalLoop=1;jettySize=auto;html=1;entryX=0.5;entryY=0;entryDx=0;entryDy=0;" edge="1" parent="1" source="5-MeQTM_BoOCngnWyIkS-70">
          <mxGeometry relative="1" as="geometry">
            <mxPoint x="610" y="690" as="targetPoint" />
          </mxGeometry>
        </mxCell>
        <mxCell id="5-MeQTM_BoOCngnWyIkS-74" value="否" style="edgeLabel;html=1;align=center;verticalAlign=middle;resizable=0;points=[];" vertex="1" connectable="0" parent="5-MeQTM_BoOCngnWyIkS-73">
          <mxGeometry x="-0.0357" relative="1" as="geometry">
            <mxPoint as="offset" />
          </mxGeometry>
        </mxCell>
        <mxCell id="5-MeQTM_BoOCngnWyIkS-90" style="edgeStyle=none;curved=1;rounded=0;orthogonalLoop=1;jettySize=auto;html=1;fontSize=12;startSize=8;endSize=8;entryX=0.5;entryY=1;entryDx=0;entryDy=0;" edge="1" parent="1" source="5-MeQTM_BoOCngnWyIkS-70" target="5-MeQTM_BoOCngnWyIkS-64">
          <mxGeometry relative="1" as="geometry">
            <mxPoint x="855" y="575" as="targetPoint" />
            <Array as="points">
              <mxPoint x="915" y="580" />
            </Array>
          </mxGeometry>
        </mxCell>
        <mxCell id="5-MeQTM_BoOCngnWyIkS-91" value="是" style="edgeLabel;html=1;align=center;verticalAlign=middle;resizable=0;points=[];fontSize=12;" vertex="1" connectable="0" parent="5-MeQTM_BoOCngnWyIkS-90">
          <mxGeometry x="0.3479" y="38" relative="1" as="geometry">
            <mxPoint as="offset" />
          </mxGeometry>
        </mxCell>
        <mxCell id="5-MeQTM_BoOCngnWyIkS-70" value="是否松开按键" style="rhombus;whiteSpace=wrap;html=1;" vertex="1" parent="1">
          <mxGeometry x="555" y="520" width="110" height="110" as="geometry" />
        </mxCell>
        <mxCell id="5-MeQTM_BoOCngnWyIkS-80" value="down-count ++" style="rounded=0;whiteSpace=wrap;html=1;" vertex="1" parent="1">
          <mxGeometry x="672.5" y="470" width="110" height="30" as="geometry" />
        </mxCell>
        <mxCell id="5-MeQTM_BoOCngnWyIkS-95" style="edgeStyle=none;curved=1;rounded=0;orthogonalLoop=1;jettySize=auto;html=1;entryX=0.5;entryY=0;entryDx=0;entryDy=0;fontSize=12;startSize=8;endSize=8;" edge="1" parent="1" source="5-MeQTM_BoOCngnWyIkS-82" target="5-MeQTM_BoOCngnWyIkS-94">
          <mxGeometry relative="1" as="geometry" />
        </mxCell>
        <mxCell id="5-MeQTM_BoOCngnWyIkS-98" style="edgeStyle=none;curved=0;rounded=0;orthogonalLoop=1;jettySize=auto;html=1;fontSize=12;startSize=8;endSize=8;entryX=0.5;entryY=0;entryDx=0;entryDy=0;" edge="1" parent="1" source="5-MeQTM_BoOCngnWyIkS-82" target="5-MeQTM_BoOCngnWyIkS-96">
          <mxGeometry relative="1" as="geometry">
            <mxPoint x="830" y="745" as="targetPoint" />
            <Array as="points">
              <mxPoint x="985" y="745" />
            </Array>
          </mxGeometry>
        </mxCell>
        <mxCell id="5-MeQTM_BoOCngnWyIkS-82" value="down-count 是否大于 3000" style="rhombus;whiteSpace=wrap;html=1;" vertex="1" parent="1">
          <mxGeometry x="460" y="690" width="300" height="110" as="geometry" />
        </mxCell>
        <mxCell id="5-MeQTM_BoOCngnWyIkS-83" value="开始计时" style="rounded=0;whiteSpace=wrap;html=1;" vertex="1" parent="1">
          <mxGeometry x="925" y="620" width="75" height="30" as="geometry" />
        </mxCell>
        <mxCell id="5-MeQTM_BoOCngnWyIkS-92" value="down-count 清零" style="rounded=0;whiteSpace=wrap;html=1;" vertex="1" parent="1">
          <mxGeometry x="825" y="310" width="110" height="30" as="geometry" />
        </mxCell>
        <mxCell id="5-MeQTM_BoOCngnWyIkS-101" style="edgeStyle=none;curved=1;rounded=0;orthogonalLoop=1;jettySize=auto;html=1;entryX=0;entryY=0.5;entryDx=0;entryDy=0;fontSize=12;startSize=8;endSize=8;" edge="1" parent="1" source="5-MeQTM_BoOCngnWyIkS-94" target="5-MeQTM_BoOCngnWyIkS-56">
          <mxGeometry relative="1" as="geometry" />
        </mxCell>
        <mxCell id="5-MeQTM_BoOCngnWyIkS-94" value="为长按" style="rounded=0;whiteSpace=wrap;html=1;" vertex="1" parent="1">
          <mxGeometry x="550" y="870" width="120" height="60" as="geometry" />
        </mxCell>
        <mxCell id="5-MeQTM_BoOCngnWyIkS-102" style="edgeStyle=none;curved=1;rounded=0;orthogonalLoop=1;jettySize=auto;html=1;entryX=1;entryY=0.5;entryDx=0;entryDy=0;fontSize=12;startSize=8;endSize=8;" edge="1" parent="1" source="5-MeQTM_BoOCngnWyIkS-96" target="5-MeQTM_BoOCngnWyIkS-56">
          <mxGeometry relative="1" as="geometry" />
        </mxCell>
        <mxCell id="5-MeQTM_BoOCngnWyIkS-96" value="为短按" style="rounded=0;whiteSpace=wrap;html=1;" vertex="1" parent="1">
          <mxGeometry x="925" y="870" width="120" height="60" as="geometry" />
        </mxCell>
      </root>
    </mxGraphModel>
  </diagram>
</mxfile>
